<svg xmlns="http://www.w3.org/2000/svg" xmlns:xlink="http://www.w3.org/1999/xlink" width="512" zoomAndPan="magnify" viewBox="0 0 384 383.999986" height="512" preserveAspectRatio="xMidYMid meet" version="1.0"><defs><clipPath id="2c03490fcf"><path d="M 39 54 L 345.699219 54 L 345.699219 333.875 L 39 333.875 Z M 39 54 " clip-rule="nonzero"/></clipPath><clipPath id="2e95b9a36a"><path d="M 285 237 L 345.699219 237 L 345.699219 299 L 285 299 Z M 285 237 " clip-rule="nonzero"/></clipPath></defs><g clip-path="url(#2c03490fcf)"><path fill="#ffffff" d="M 67.863281 333.460938 C 64.121094 333.460938 60.238281 332.742188 56.640625 331.15625 C 41.960938 324.96875 35.199219 307.988281 41.386719 293.457031 L 119.09375 110.558594 C 120.386719 107.679688 121.96875 104.945312 124.128906 102.644531 L 124.847656 101.78125 C 131.324219 94.441406 141.109375 90.988281 150.75 92.570312 C 160.390625 94.152344 168.59375 100.484375 172.625 109.40625 L 210.613281 195.746094 L 288.320312 68.105469 C 292.925781 60.480469 300.839844 55.441406 309.761719 54.4375 C 318.683594 53.429688 327.460938 56.738281 333.648438 63.070312 L 335.519531 65.085938 C 340.554688 70.410156 343.433594 77.316406 343.578125 84.65625 L 345.015625 188.695312 C 345.304688 204.523438 332.496094 217.621094 316.667969 217.90625 C 300.839844 218.195312 287.746094 205.386719 287.457031 189.558594 L 287.3125 180.207031 L 231.191406 272.445312 C 225.578125 281.65625 215.363281 286.835938 204.714844 286.117188 C 194.066406 285.398438 184.566406 278.777344 180.25 268.992188 L 146.578125 192.726562 L 94.199219 315.902344 C 89.59375 326.839844 78.945312 333.460938 67.863281 333.460938 Z M 67.863281 333.460938 " fill-opacity="1" fill-rule="nonzero"/></g><g clip-path="url(#2e95b9a36a)"><path fill="#ffffff" d="M 345.59375 267.839844 C 345.59375 268.832031 345.542969 269.816406 345.445312 270.804688 C 345.351562 271.789062 345.203125 272.765625 345.011719 273.738281 C 344.820312 274.707031 344.578125 275.667969 344.292969 276.613281 C 344.003906 277.558594 343.671875 278.492188 343.292969 279.40625 C 342.914062 280.320312 342.492188 281.214844 342.023438 282.085938 C 341.558594 282.960938 341.050781 283.808594 340.5 284.628906 C 339.949219 285.453125 339.359375 286.246094 338.734375 287.011719 C 338.105469 287.777344 337.441406 288.507812 336.742188 289.210938 C 336.042969 289.910156 335.308594 290.574219 334.542969 291.199219 C 333.777344 291.828125 332.984375 292.417969 332.164062 292.96875 C 331.339844 293.515625 330.492188 294.027344 329.617188 294.492188 C 328.746094 294.957031 327.851562 295.382812 326.9375 295.761719 C 326.023438 296.140625 325.09375 296.472656 324.144531 296.757812 C 323.199219 297.046875 322.238281 297.285156 321.269531 297.480469 C 320.296875 297.671875 319.320312 297.816406 318.335938 297.914062 C 317.351562 298.011719 316.363281 298.058594 315.375 298.058594 C 314.382812 298.058594 313.394531 298.011719 312.410156 297.914062 C 311.425781 297.816406 310.449219 297.671875 309.476562 297.480469 C 308.507812 297.285156 307.546875 297.046875 306.601562 296.757812 C 305.652344 296.472656 304.722656 296.140625 303.808594 295.761719 C 302.894531 295.382812 302 294.957031 301.128906 294.492188 C 300.253906 294.027344 299.40625 293.515625 298.585938 292.96875 C 297.761719 292.417969 296.96875 291.828125 296.203125 291.199219 C 295.4375 290.574219 294.703125 289.910156 294.003906 289.210938 C 293.304688 288.507812 292.640625 287.777344 292.011719 287.011719 C 291.386719 286.246094 290.796875 285.453125 290.246094 284.628906 C 289.695312 283.808594 289.1875 282.960938 288.722656 282.085938 C 288.253906 281.214844 287.832031 280.320312 287.453125 279.40625 C 287.074219 278.492188 286.742188 277.558594 286.457031 276.613281 C 286.167969 275.667969 285.929688 274.707031 285.734375 273.738281 C 285.542969 272.765625 285.398438 271.789062 285.300781 270.804688 C 285.203125 269.816406 285.152344 268.832031 285.152344 267.839844 C 285.152344 266.851562 285.203125 265.863281 285.300781 264.878906 C 285.398438 263.894531 285.542969 262.917969 285.734375 261.945312 C 285.929688 260.976562 286.167969 260.015625 286.457031 259.070312 C 286.742188 258.121094 287.074219 257.191406 287.453125 256.277344 C 287.832031 255.363281 288.253906 254.46875 288.722656 253.597656 C 289.1875 252.722656 289.695312 251.875 290.246094 251.050781 C 290.796875 250.230469 291.386719 249.433594 292.011719 248.671875 C 292.640625 247.90625 293.304688 247.171875 294.003906 246.472656 C 294.703125 245.773438 295.4375 245.109375 296.203125 244.480469 C 296.96875 243.851562 297.761719 243.265625 298.585938 242.714844 C 299.40625 242.164062 300.253906 241.65625 301.128906 241.191406 C 302 240.722656 302.894531 240.300781 303.808594 239.921875 C 304.722656 239.542969 305.652344 239.210938 306.601562 238.921875 C 307.546875 238.636719 308.507812 238.394531 309.476562 238.203125 C 310.449219 238.007812 311.425781 237.863281 312.410156 237.765625 C 313.394531 237.671875 314.382812 237.621094 315.375 237.621094 C 316.363281 237.621094 317.351562 237.671875 318.335938 237.765625 C 319.320312 237.863281 320.296875 238.007812 321.269531 238.203125 C 322.238281 238.394531 323.199219 238.636719 324.144531 238.921875 C 325.09375 239.210938 326.023438 239.542969 326.9375 239.921875 C 327.851562 240.300781 328.746094 240.722656 329.617188 241.191406 C 330.492188 241.65625 331.339844 242.164062 332.164062 242.714844 C 332.984375 243.265625 333.777344 243.851562 334.542969 244.480469 C 335.308594 245.109375 336.042969 245.773438 336.742188 246.472656 C 337.441406 247.171875 338.105469 247.90625 338.734375 248.671875 C 339.359375 249.433594 339.949219 250.230469 340.5 251.050781 C 341.050781 251.875 341.558594 252.722656 342.023438 253.597656 C 342.492188 254.46875 342.914062 255.363281 343.292969 256.277344 C 343.671875 257.191406 344.003906 258.121094 344.292969 259.070312 C 344.578125 260.015625 344.820312 260.976562 345.011719 261.945312 C 345.203125 262.917969 345.351562 263.894531 345.445312 264.878906 C 345.542969 265.863281 345.59375 266.851562 345.59375 267.839844 Z M 345.59375 267.839844 " fill-opacity="1" fill-rule="nonzero"/></g></svg>