<svg width="246" height="61" viewBox="0 0 246 61" fill="none" xmlns="http://www.w3.org/2000/svg">
<mask id="mask0_20_1425" style="mask-type:luminance" maskUnits="userSpaceOnUse" x="0" y="0" width="67" height="61">
<path d="M0 0H66.6921V60.7694H0V0Z" fill="white"/>
</mask>
<g mask="url(#mask0_20_1425)">
<path d="M6.42101 61.0263C5.60624 61.0263 4.76013 60.8696 3.9767 60.5249C0.777153 59.1743 -0.695703 55.4765 0.651803 52.3083L17.5834 12.4566C17.8654 11.8298 18.2101 11.2344 18.6802 10.733L18.8369 10.545C20.247 8.94367 22.3811 8.19157 24.4807 8.53628C26.5835 8.88099 28.3697 10.263 29.2471 12.2059L37.5265 31.0177L54.458 3.2058C55.4608 1.54492 57.1844 0.448113 59.1273 0.228751C61.0733 0.00939045 62.9849 0.730149 64.3324 2.10899L64.7398 2.54771C65.8397 3.7072 66.4665 5.21452 66.4978 6.81273L66.8112 29.4822C66.8739 32.9324 64.0817 35.7841 60.6346 35.8468C57.1844 35.9094 54.3327 33.1204 54.27 29.6702L54.2387 27.6333L42.0077 47.7299C40.7855 49.7386 38.5606 50.8668 36.2385 50.7101C33.9195 50.5534 31.8513 49.1119 30.908 46.9778L23.5719 30.3596L12.1589 57.2C11.1561 59.5817 8.83398 61.0263 6.42101 61.0263Z" fill="white"/>
</g>
<mask id="mask1_20_1425" style="mask-type:luminance" maskUnits="userSpaceOnUse" x="53" y="39" width="14" height="15">
<path d="M53.4302 39.7107H66.6921V53.3487H53.4302V39.7107Z" fill="white"/>
</mask>
<g mask="url(#mask1_20_1425)">
<path d="M66.9366 46.7271C66.9366 47.1596 66.8927 47.5889 66.8081 48.0119C66.7235 48.435 66.6013 48.8486 66.4352 49.2466C66.2691 49.6478 66.0654 50.0269 65.8272 50.3842C65.5859 50.7446 65.3133 51.0767 65.0062 51.3838C64.7022 51.6878 64.3701 51.9604 64.0097 52.2017C63.6493 52.443 63.2701 52.6467 62.8721 52.8097C62.471 52.9758 62.0605 53.1011 61.6374 53.1857C61.2113 53.2703 60.7851 53.3111 60.3526 53.3111C59.9202 53.3111 59.4908 53.2703 59.0678 53.1857C58.6416 53.1011 58.2311 52.9758 57.8331 52.8097C57.432 52.6467 57.0528 52.443 56.6924 52.2017C56.3352 51.9604 55.9999 51.6878 55.6959 51.3838C55.3888 51.0767 55.1161 50.7446 54.878 50.3842C54.6367 50.0269 54.433 49.6478 54.2669 49.2466C54.1039 48.8486 53.9786 48.435 53.894 48.0119C53.8094 47.5889 53.7655 47.1596 53.7655 46.7271C53.7655 46.2947 53.8094 45.8653 53.894 45.4423C53.9786 45.0192 54.1039 44.6056 54.2669 44.2076C54.433 43.8096 54.6367 43.4273 54.878 43.07C55.1161 42.7097 55.3888 42.3775 55.6959 42.0704C55.9999 41.7664 56.3352 41.4938 56.6924 41.2525C57.0528 41.0112 57.432 40.8106 57.8331 40.6445C58.2311 40.4784 58.6416 40.3531 59.0678 40.2685C59.4908 40.1839 59.9202 40.1431 60.3526 40.1431C60.7851 40.1431 61.2113 40.1839 61.6374 40.2685C62.0605 40.3531 62.471 40.4784 62.8721 40.6445C63.2701 40.8106 63.6493 41.0112 64.0097 41.2525C64.3701 41.4938 64.7022 41.7664 65.0062 42.0704C65.3133 42.3775 65.5859 42.7097 65.8272 43.07C66.0654 43.4273 66.2691 43.8096 66.4352 44.2076C66.6013 44.6056 66.7235 45.0192 66.8081 45.4423C66.8927 45.8653 66.9366 46.2947 66.9366 46.7271Z" fill="white"/>
</g>
<path d="M84.8187 20.3435C85.0851 20.3435 85.3702 20.4187 85.6711 20.5691C85.9782 20.7132 86.2101 20.9013 86.3605 21.1332L93.4678 32.0636L92.0012 32.0135L99.284 21.1332C99.6507 20.6067 100.127 20.3435 100.713 20.3435C101.18 20.3435 101.597 20.5127 101.967 20.8449C102.343 21.1802 102.531 21.6095 102.531 22.136V39.0581C102.531 39.5595 102.361 39.9826 102.029 40.3242C101.703 40.6689 101.265 40.8381 100.713 40.8381C100.168 40.8381 99.7259 40.6689 99.3843 40.3242C99.049 39.9826 98.8829 39.5595 98.8829 39.0581V25.2822L100.011 25.5455L94.057 34.6458C93.8815 34.8558 93.659 35.0407 93.3926 35.1974C93.1325 35.3572 92.8661 35.423 92.5904 35.3979C92.3397 35.423 92.0796 35.3572 91.8132 35.1974C91.5531 35.0407 91.3369 34.8558 91.1614 34.6458L85.5708 25.8087L86.3354 24.2669V39.0581C86.3354 39.5595 86.1756 39.9826 85.8591 40.3242C85.5489 40.6689 85.1446 40.8381 84.6432 40.8381C84.1575 40.8381 83.7564 40.6689 83.4399 40.3242C83.1296 39.9826 82.9761 39.5595 82.9761 39.0581V22.136C82.9761 21.644 83.1547 21.2209 83.5151 20.8699C83.8723 20.5189 84.3079 20.3435 84.8187 20.3435Z" fill="white"/>
<path d="M121.793 33.0288C121.793 34.6333 121.436 36.0466 120.727 37.2656C120.016 38.4784 119.06 39.4279 117.857 40.1111C116.66 40.7879 115.325 41.1264 113.846 41.1264C112.357 41.1264 111.016 40.7879 109.822 40.1111C108.625 39.4279 107.669 38.4784 106.952 37.2656C106.24 36.0466 105.886 34.6333 105.886 33.0288C105.886 31.4337 106.24 30.0298 106.952 28.8171C107.669 27.5981 108.625 26.6423 109.822 25.9466C111.016 25.254 112.357 24.9062 113.846 24.9062C115.325 24.9062 116.66 25.254 117.857 25.9466C119.06 26.6423 120.016 27.5981 120.727 28.8171C121.436 30.0298 121.793 31.4337 121.793 33.0288ZM118.283 33.0288C118.283 32.0354 118.083 31.1736 117.681 30.4466C117.28 29.7196 116.744 29.1524 116.077 28.7419C115.406 28.3345 114.664 28.1277 113.846 28.1277C113.025 28.1277 112.279 28.3345 111.602 28.7419C110.931 29.1524 110.399 29.7196 109.998 30.4466C109.596 31.1736 109.396 32.0354 109.396 33.0288C109.396 34.0065 109.596 34.8652 109.998 35.5985C110.399 36.3255 110.931 36.8958 111.602 37.3032C112.279 37.7137 113.025 37.9174 113.846 37.9174C114.664 37.9174 115.406 37.7137 116.077 37.3032C116.744 36.8958 117.28 36.3255 117.681 35.5985C118.083 34.8652 118.283 34.0065 118.283 33.0288Z" fill="white"/>
<path d="M133.225 24.9062C134.66 24.9062 135.757 25.2133 136.509 25.8212C137.261 26.4229 137.775 27.2251 138.051 28.2279C138.333 29.2307 138.477 30.3463 138.477 31.5748V39.0581C138.477 39.5595 138.308 39.9826 137.976 40.3241C137.65 40.6689 137.23 40.8381 136.722 40.8381C136.221 40.8381 135.801 40.6689 135.469 40.3241C135.133 39.9826 134.967 39.5595 134.967 39.0581V31.5748C134.967 30.9323 134.883 30.3526 134.717 29.8324C134.557 29.3153 134.259 28.9017 133.827 28.5914C133.4 28.2843 132.789 28.1277 131.996 28.1277C131.21 28.1277 130.549 28.2843 130.016 28.5914C129.48 28.9017 129.07 29.3153 128.788 29.8324C128.502 30.3526 128.361 30.9323 128.361 31.5748V39.0581C128.361 39.5595 128.192 39.9826 127.86 40.3241C127.534 40.6689 127.12 40.8381 126.619 40.8381C126.108 40.8381 125.685 40.6689 125.353 40.3241C125.027 39.9826 124.864 39.5595 124.864 39.0581V26.987C124.864 26.4793 125.027 26.0531 125.353 25.7084C125.685 25.3668 126.108 25.1945 126.619 25.1945C127.12 25.1945 127.534 25.3668 127.86 25.7084C128.192 26.0531 128.361 26.4793 128.361 26.987V28.2405L127.923 28.1527C128.098 27.8205 128.352 27.4633 128.687 27.0873C129.019 26.7049 129.408 26.3477 129.853 26.0218C130.304 25.6896 130.809 25.4201 131.37 25.2195C131.937 25.0127 132.554 24.9062 133.225 24.9062Z" fill="white"/>
<path d="M149.642 41.1264C147.987 41.1264 146.549 40.7848 145.33 40.0985C144.117 39.406 143.18 38.4658 142.522 37.2782C141.87 36.0842 141.544 34.7398 141.544 33.2419C141.544 31.487 141.899 29.9922 142.61 28.7544C143.328 27.5197 144.258 26.5702 145.405 25.909C146.558 25.2415 147.777 24.9062 149.065 24.9062C150.059 24.9062 150.999 25.113 151.886 25.5204C152.77 25.9309 153.553 26.4918 154.23 27.2001C154.913 27.9114 155.458 28.7356 155.859 29.6695C156.261 30.6064 156.461 31.5998 156.461 32.6528C156.436 33.1228 156.248 33.502 155.897 33.7934C155.546 34.088 155.135 34.2322 154.669 34.2322H143.512L142.635 31.3115H153.352L152.713 31.8881V31.0984C152.669 30.5406 152.469 30.0392 152.111 29.5942C151.751 29.143 151.303 28.7889 150.77 28.5288C150.234 28.2624 149.667 28.1277 149.065 28.1277C148.479 28.1277 147.931 28.2091 147.423 28.3658C146.913 28.5162 146.474 28.7795 146.107 29.1555C145.737 29.5253 145.446 30.0204 145.23 30.6472C145.01 31.2677 144.904 32.0511 144.904 33.0037C144.904 34.0567 145.12 34.9529 145.556 35.6862C145.998 36.4132 146.565 36.9711 147.26 37.3534C147.953 37.7294 148.689 37.9174 149.467 37.9174C150.194 37.9174 150.77 37.861 151.196 37.742C151.623 37.626 151.964 37.485 152.224 37.3158C152.491 37.1497 152.732 37.0087 152.951 36.8896C153.302 36.7141 153.631 36.6263 153.942 36.6263C154.368 36.6263 154.722 36.7736 155.007 37.0651C155.289 37.3596 155.433 37.7012 155.433 38.0929C155.433 38.6194 155.161 39.0957 154.618 39.5219C154.108 39.9481 153.393 40.3241 152.475 40.6501C151.563 40.9666 150.62 41.1264 149.642 41.1264Z" fill="white"/>
<path d="M171.124 25.1945C171.631 25.1945 172.051 25.3668 172.377 25.7084C172.709 26.0531 172.878 26.4793 172.878 26.987V39.4091C172.878 41.1953 172.54 42.6212 171.863 43.6835C171.192 44.7427 170.296 45.5074 169.168 45.9774C168.04 46.4443 166.774 46.6794 165.37 46.6794C164.743 46.6794 164.079 46.6292 163.377 46.529C162.675 46.4349 162.101 46.2939 161.66 46.1028C161.074 45.8427 160.669 45.5199 160.444 45.1376C160.218 44.7615 160.174 44.3604 160.318 43.9342C160.494 43.3733 160.773 42.9878 161.158 42.781C161.55 42.5804 161.96 42.5554 162.387 42.7058C162.694 42.8061 163.104 42.9565 163.615 43.1571C164.123 43.3639 164.709 43.4704 165.37 43.4704C166.263 43.4704 167.006 43.3482 167.601 43.1069C168.203 42.8625 168.654 42.4551 168.955 41.8785C169.256 41.3019 169.406 40.5185 169.406 39.5219V37.5665L170.02 38.2684C169.685 38.914 169.268 39.4436 168.767 39.8604C168.272 40.2803 167.683 40.5968 167 40.813C166.323 41.0198 165.545 41.1264 164.668 41.1264C163.631 41.1264 162.728 40.8882 161.96 40.4119C161.19 39.9356 160.594 39.2775 160.168 38.4314C159.742 37.579 159.529 36.6107 159.529 35.5233V26.987C159.529 26.4793 159.692 26.0531 160.018 25.7084C160.35 25.3668 160.773 25.1945 161.284 25.1945C161.785 25.1945 162.199 25.3668 162.525 25.7084C162.857 26.0531 163.026 26.4793 163.026 26.987V34.4703C163.026 35.7332 163.302 36.6232 163.853 37.1403C164.411 37.6605 165.188 37.9175 166.185 37.9175C166.868 37.9175 167.445 37.789 167.915 37.5289C168.381 37.2625 168.742 36.8708 168.993 36.3506C169.243 35.8335 169.369 35.2068 169.369 34.4703V26.987C169.369 26.4793 169.535 26.0531 169.87 25.7084C170.202 25.3668 170.622 25.1945 171.124 25.1945Z" fill="white"/>
<path d="M178.817 20.3435C179.083 20.3435 179.368 20.4187 179.669 20.5691C179.976 20.7132 180.208 20.9013 180.358 21.1332L187.466 32.0636L185.999 32.0135L193.282 21.1332C193.649 20.6067 194.125 20.3435 194.711 20.3435C195.178 20.3435 195.595 20.5127 195.964 20.8449C196.34 21.1802 196.528 21.6095 196.528 22.136V39.0581C196.528 39.5595 196.359 39.9826 196.027 40.3242C195.701 40.6689 195.262 40.8381 194.711 40.8381C194.166 40.8381 193.724 40.6689 193.382 40.3242C193.047 39.9826 192.881 39.5595 192.881 39.0581V25.2822L194.009 25.5455L188.055 34.6458C187.879 34.8558 187.657 35.0407 187.39 35.1974C187.13 35.3572 186.864 35.423 186.588 35.3979C186.338 35.423 186.077 35.3572 185.811 35.1974C185.551 35.0407 185.335 34.8558 185.159 34.6458L179.569 25.8087L180.333 24.2669V39.0581C180.333 39.5595 180.173 39.9826 179.857 40.3242C179.547 40.6689 179.142 40.8381 178.641 40.8381C178.155 40.8381 177.754 40.6689 177.438 40.3242C177.127 39.9826 176.974 39.5595 176.974 39.0581V22.136C176.974 21.644 177.153 21.2209 177.513 20.8699C177.87 20.5189 178.306 20.3435 178.817 20.3435Z" fill="white"/>
<path d="M213.422 24.9062C213.929 24.9062 214.349 25.0754 214.675 25.4076C215.007 25.7335 215.177 26.1597 215.177 26.6861V39.0581C215.177 39.5595 215.007 39.9826 214.675 40.3241C214.349 40.6689 213.929 40.8381 213.422 40.8381C212.911 40.8381 212.488 40.6689 212.156 40.3241C211.83 39.9826 211.667 39.5595 211.667 39.0581V37.6166L212.306 37.8798C212.306 38.1399 212.168 38.4502 211.892 38.8074C211.623 39.1678 211.256 39.5219 210.789 39.8729C210.319 40.2239 209.768 40.5216 209.135 40.7629C208.508 41.0042 207.822 41.1264 207.079 41.1264C205.731 41.1264 204.512 40.7848 203.419 40.0985C202.331 39.406 201.47 38.4502 200.837 37.228C200.2 36.009 199.884 34.6082 199.884 33.0288C199.884 31.4337 200.2 30.0298 200.837 28.8171C201.47 27.5981 202.322 26.6423 203.394 25.9466C204.462 25.254 205.653 24.9062 206.966 24.9062C207.8 24.9062 208.571 25.0378 209.273 25.2948C209.975 25.5455 210.579 25.8682 211.09 26.2599C211.607 26.6454 212.008 27.0371 212.293 27.4382C212.576 27.8393 212.72 28.1747 212.72 28.441L211.667 28.8296V26.6861C211.667 26.1847 211.83 25.7648 212.156 25.4201C212.488 25.0785 212.911 24.9062 213.422 24.9062ZM207.518 37.9174C208.376 37.9174 209.125 37.7043 209.761 37.2782C210.404 36.8457 210.905 36.2597 211.266 35.5233C211.632 34.7806 211.817 33.9501 211.817 33.0288C211.817 32.095 211.632 31.2583 211.266 30.5218C210.905 29.7791 210.404 29.1931 209.761 28.7669C209.125 28.3407 208.376 28.1277 207.518 28.1277C206.681 28.1277 205.941 28.3407 205.299 28.7669C204.653 29.1931 204.149 29.7791 203.782 30.5218C203.422 31.2583 203.243 32.095 203.243 33.0288C203.243 33.9501 203.422 34.7806 203.782 35.5233C204.149 36.2597 204.653 36.8457 205.299 37.2782C205.941 37.7043 206.681 37.9174 207.518 37.9174Z" fill="white"/>
<path d="M219.154 25.4953H226.074C226.54 25.4953 226.929 25.652 227.239 25.9591C227.556 26.2693 227.716 26.6579 227.716 27.1249C227.716 27.5761 227.556 27.9522 227.239 28.253C226.929 28.5538 226.54 28.7043 226.074 28.7043H219.154C218.684 28.7043 218.293 28.5507 217.976 28.2405C217.666 27.9334 217.512 27.5448 217.512 27.0747C217.512 26.6235 217.666 26.2474 217.976 25.9466C218.293 25.6457 218.684 25.4953 219.154 25.4953ZM222.275 21.8351C222.783 21.8351 223.197 22.0075 223.516 22.349C223.842 22.6938 224.005 23.1137 224.005 23.6151V36.6263C224.005 36.9021 224.055 37.1277 224.156 37.3032C224.262 37.4787 224.41 37.6041 224.594 37.6793C224.786 37.7545 224.986 37.7921 225.196 37.7921C225.428 37.7921 225.641 37.7513 225.835 37.6667C226.036 37.5759 226.262 37.5289 226.512 37.5289C226.788 37.5289 227.039 37.6605 227.264 37.9174C227.49 38.1681 227.603 38.5191 227.603 38.9704C227.603 39.5156 227.302 39.9606 226.7 40.3116C226.105 40.6626 225.472 40.8381 224.795 40.8381C224.384 40.8381 223.93 40.8067 223.429 40.7378C222.934 40.672 222.467 40.509 222.025 40.2489C221.589 39.9826 221.226 39.5783 220.934 39.033C220.64 38.4815 220.496 37.7294 220.496 36.7768V23.6151C220.496 23.1137 220.662 22.6938 220.997 22.349C221.338 22.0075 221.765 21.8351 222.275 21.8351Z" fill="white"/>
<path d="M238.291 41.1264C236.637 41.1264 235.198 40.7848 233.979 40.0985C232.766 39.406 231.829 38.4658 231.171 37.2782C230.519 36.0842 230.194 34.7398 230.194 33.2419C230.194 31.487 230.548 29.9922 231.259 28.7544C231.977 27.5197 232.907 26.5702 234.054 25.909C235.208 25.2415 236.427 24.9062 237.715 24.9062C238.708 24.9062 239.648 25.113 240.535 25.5204C241.419 25.9309 242.202 26.4918 242.879 27.2001C243.562 27.9114 244.107 28.7356 244.508 29.6695C244.91 30.6064 245.11 31.5998 245.11 32.6528C245.085 33.1228 244.897 33.502 244.546 33.7934C244.195 34.088 243.785 34.2322 243.318 34.2322H232.162L231.284 31.3115H242.001L241.362 31.8881V31.0984C241.318 30.5406 241.118 30.0392 240.76 29.5942C240.4 29.143 239.952 28.7889 239.419 28.5288C238.883 28.2624 238.316 28.1277 237.715 28.1277C237.128 28.1277 236.58 28.2091 236.072 28.3658C235.562 28.5162 235.123 28.7795 234.756 29.1555C234.386 29.5253 234.095 30.0204 233.879 30.6472C233.659 31.2677 233.553 32.0511 233.553 33.0037C233.553 34.0567 233.769 34.9529 234.205 35.6862C234.647 36.4132 235.214 36.9711 235.909 37.3534C236.602 37.7294 237.338 37.9174 238.116 37.9174C238.843 37.9174 239.419 37.861 239.845 37.742C240.272 37.626 240.613 37.485 240.873 37.3158C241.14 37.1497 241.381 37.0087 241.6 36.8896C241.951 36.7141 242.28 36.6263 242.591 36.6263C243.017 36.6263 243.371 36.7736 243.656 37.0651C243.938 37.3596 244.082 37.7012 244.082 38.0929C244.082 38.6194 243.81 39.0957 243.267 39.5219C242.757 39.9481 242.042 40.3241 241.124 40.6501C240.212 40.9666 239.269 41.1264 238.291 41.1264Z" fill="white"/>
</svg>
